<svg width="32" height="27" viewBox="0 0 32 27" fill="none" xmlns="http://www.w3.org/2000/svg">
<path d="M3 9.36208C3 4.59091 6.17642 0.166664 10.526 0.166664C13.5444 0.166664 15.7842 2.15166 17.1667 4.96758C18.5491 2.15183 20.7888 0.166664 23.8073 0.166664C28.1574 0.166664 31.3333 4.59166 31.3333 9.36208C31.3333 19.574 17.1667 26.8333 17.1667 26.8333C17.1667 26.8333 7.62392 22.2393 4.20258 14.7037H12.654L13.9973 12.3157L15.5664 17.8077L19.2409 13.0833H23.8333V11.4167H18.4258L16.2669 14.1923L14.5027 8.01766L11.6793 13.037H3.56653C3.74318 13.6073 3.95717 14.1631 4.20258 14.7037L0.5 14.7036V13.0369L3.56653 13.037C3.20536 11.8711 3 10.6442 3 9.36208Z" fill="#2B75CA"/>
</svg>
