<svg width="29" height="29" viewBox="0 0 29 29" fill="none" xmlns="http://www.w3.org/2000/svg">
<path fill-rule="evenodd" clip-rule="evenodd" d="M11.9082 1.95546C8.21157 -0.125192 4.93655 0.853162 2.21445 4.15803C-0.41279 7.34782 1.37845 13.0975 2.66613 17.2307C2.97313 18.2162 3.25157 19.1098 3.43456 19.8549C4.38529 23.7249 5.29485 26.1365 7.36891 27.8818C8.39609 28.7461 9.56075 27.2608 10.7895 25.6938C11.8549 24.3353 12.9684 22.9153 14.0822 22.9119C15.1779 22.9085 16.2737 24.3263 17.3243 25.6854C18.5369 27.2542 19.6892 28.7448 20.7109 27.8818C22.2951 26.5438 23.0146 25.5621 23.885 22.8056C24.8343 19.7995 26.3671 16.2046 27.5857 12.0607C28.4431 9.14513 28.5458 6.17694 26.0747 3.31171C22.5468 -0.778909 17.6568 1.33399 15.3805 2.68689L18.4638 5.33002C18.8212 5.63633 18.8626 6.17439 18.5562 6.53175C18.2499 6.88912 17.7118 6.93054 17.3544 6.62414L11.9082 1.95546Z" fill="#2B75CA"/>
</svg>
