<svg width="41" height="41" viewBox="0 0 41 41" fill="none" xmlns="http://www.w3.org/2000/svg">
<path fill-rule="evenodd" clip-rule="evenodd" d="M25.1537 19.5588C26.1198 19.5588 27.0636 19.2958 27.8615 18.804C28.6717 19.2948 29.6278 19.5522 30.6035 19.5419L33.7027 18.5238C34.5761 17.8739 35.1756 16.9729 35.4011 15.9718C35.6265 14.9705 35.4641 13.9298 34.9411 13.0237C34.4181 12.1176 33.5662 11.4011 32.528 10.9943C32.2909 10.0248 31.6938 9.15784 30.8357 8.53703L27.8104 7.58126H27.4698C26.7969 6.69493 25.7867 6.06269 24.6312 5.80476L18.1451 5.47559C17.0669 5.55646 16.0502 5.9624 15.2587 6.62809C14.8847 6.54849 14.5019 6.50724 14.1177 6.5051C13.1872 6.50683 12.2772 6.75162 11.4976 7.20993C10.7179 7.66823 10.1018 8.32046 9.72375 9.08792L7.25929 10.6638C6.64606 11.4138 6.31594 12.3219 6.31756 13.2542C6.3115 13.6439 6.36888 14.0324 6.48787 14.4072C5.84131 15.1646 5.49363 16.0953 5.50009 17.0514C5.49855 18.1604 5.96785 19.2278 6.81145 20.0339C6.87954 20.8278 7.18686 21.5899 7.70018 22.2375C8.2135 22.8852 8.91325 23.3938 9.72375 23.7083C10.6576 24.2368 11.4483 24.9475 12.0377 25.7882C12.6272 26.6289 13.0004 27.5783 13.1299 28.5663H15.3952V22.1137L13.1937 20.1568L11.7042 21.6464C11.3787 21.9718 10.8512 21.9718 10.5257 21.6464C10.2002 21.321 10.2002 20.7933 10.5257 20.4679L12.2623 18.7313L11.7331 15.8207L9.37866 14.6434C8.967 14.4376 8.80015 13.937 9.006 13.5253C9.21183 13.1138 9.71233 12.9468 10.124 13.1527L12.4297 14.3055L15.3144 12.4698L14.4256 10.0998C14.264 9.66884 14.4823 9.1885 14.9132 9.02684C15.3442 8.86525 15.8246 9.08359 15.9862 9.5145L16.9342 12.0425H18.0999L18.6409 10.9605L17.849 9.11267C17.6677 8.68965 17.8637 8.19975 18.2867 8.01845C18.7097 7.83716 19.1997 8.03312 19.3809 8.45614L20.0691 10.0618L22.8188 10.5618C22.8342 10.5473 22.8503 10.5334 22.8671 10.5201L24.5717 9.15642C24.9311 8.86892 25.4555 8.92717 25.743 9.28659C26.0305 9.64592 25.9722 10.1703 25.6128 10.4578L24.3864 11.439L25.8274 13.2916L26.3923 12.1618C26.5335 11.8794 26.8221 11.7011 27.1377 11.7011H29.1832C29.6434 11.7011 30.0165 12.0742 30.0165 12.5344C30.0165 12.9947 29.6434 13.3678 29.1832 13.3678H27.6527L27.3033 14.0666L29.023 14.4487C29.0895 14.4635 29.1539 14.4863 29.2149 14.5168L30.5785 15.1987C30.9902 15.4045 31.157 15.905 30.9512 16.3167C30.7454 16.7283 30.2448 16.8952 29.8332 16.6893L28.5613 16.0534L25.5932 15.3938C25.404 15.3518 25.2352 15.245 25.1162 15.092L22.9253 12.2751L20.2059 11.7807C20.1545 11.8286 20.0963 11.8705 20.0321 11.9049L19.4482 13.0726V13.7465H20.6604C20.7898 13.7465 20.9174 13.7767 21.0331 13.8345L23.7604 15.1982C24.172 15.404 24.3389 15.9045 24.1331 16.3162C23.9272 16.7278 23.4267 16.8947 23.015 16.6888L20.4637 15.4132H19.4482V16.9668C19.4482 17.427 19.0752 17.8001 18.6149 17.8001C18.1547 17.8001 17.7816 17.427 17.7816 16.9668V13.7092H16.4712L13.3987 15.6644L13.9288 18.5803L16.7822 21.1166C16.9601 21.2748 17.0619 21.5014 17.0619 21.7394V28.5663H19.4929V23.9542C19.4917 23.1353 19.7448 22.3325 20.2235 21.6368C20.7021 20.9413 21.3871 20.3806 22.2008 20.0185C22.6584 19.8605 22.771 19.6478 22.9089 19.3871C23.0008 19.2133 23.1041 19.0183 23.3281 18.804C23.5227 18.9239 23.6735 19.0303 23.8043 19.1225C24.2098 19.4084 24.4231 19.5588 25.1537 19.5588Z" fill="#2B75CA"/>
<path fill-rule="evenodd" clip-rule="evenodd" d="M19.6667 32.1668H13V30.5001H19.6667V32.1668Z" fill="#2B75CA"/>
<path fill-rule="evenodd" clip-rule="evenodd" d="M19.6667 35.5001H13V33.8334H19.6667V35.5001Z" fill="#2B75CA"/>
</svg>
