<svg width="31" height="35" viewBox="0 0 31 35" fill="none" xmlns="http://www.w3.org/2000/svg">
<path fill-rule="evenodd" clip-rule="evenodd" d="M11.3333 0.833336C11.7936 0.833336 12.1667 1.20644 12.1667 1.66667V8.61934C12.1667 9.50333 11.8155 10.3512 11.1903 10.9763L10.7705 11.3963C9.70058 12.4661 9.70058 14.2007 10.7705 15.2705C11.6042 16.1043 12.8781 16.311 13.9328 15.7837L14.1347 15.6827C14.9942 15.2529 16.0058 15.2529 16.8652 15.6827L17.0672 15.7837C18.1219 16.311 19.3958 16.1043 20.2295 15.2705C21.2994 14.2007 21.2994 12.4661 20.2295 11.3963L19.8097 10.9763C19.1845 10.3512 18.8333 9.50333 18.8333 8.61934V1.66667C18.8333 1.20644 19.2064 0.833336 19.6667 0.833336C20.1269 0.833336 20.5 1.20644 20.5 1.66667V3.35354C26.326 5.41273 30.5 10.9689 30.5 17.5C30.5 24.0311 26.326 29.5873 20.5 31.6465V33.3333C20.5 33.7936 20.1269 34.1667 19.6667 34.1667C19.2064 34.1667 18.8333 33.7936 18.8333 33.3333V26.3808C18.8333 25.4967 19.1845 24.6488 19.8097 24.0237L20.2295 23.6038C21.2994 22.534 21.2994 20.7994 20.2295 19.7296C19.3958 18.8958 18.1219 18.689 17.0672 19.2164L16.8652 19.3174C16.0058 19.7471 14.9942 19.7471 14.1347 19.3174L13.9328 19.2164C12.8781 18.689 11.6042 18.8958 10.7705 19.7296C9.70058 20.7994 9.70058 22.5339 10.7705 23.6038L11.1903 24.0237C11.8155 24.6488 12.1667 25.4967 12.1667 26.3808V33.3333C12.1667 33.7936 11.7936 34.1667 11.3333 34.1667C10.8731 34.1667 10.5 33.7936 10.5 33.3333V31.6465C4.674 29.5873 0.5 24.0311 0.5 17.5C0.5 10.9689 4.674 5.41273 10.5 3.35354V1.66667C10.5 1.20644 10.8731 0.833336 11.3333 0.833336Z" fill="#2B75CA"/>
</svg>
